<svg width="24" height="24" viewBox="0 0 24 24" fill="none" xmlns="http://www.w3.org/2000/svg">
<path d="M12 14.4001C13.3255 14.4001 14.4 13.3256 14.4 12.0001C14.4 10.6746 13.3255 9.6001 12 9.6001C10.6745 9.6001 9.60001 10.6746 9.60001 12.0001C9.60001 13.3256 10.6745 14.4001 12 14.4001Z" fill="#C4C4C4"/>
<path fill-rule="evenodd" clip-rule="evenodd" d="M0.549316 12.0001C2.07842 7.13159 6.62678 3.6001 12 3.6001C17.3731 3.6001 21.9215 7.13155 23.4506 12.0001C21.9215 16.8686 17.3731 20.4001 11.9999 20.4001C6.62679 20.4001 2.07845 16.8686 0.549316 12.0001ZM16.8 12.0001C16.8 14.6511 14.651 16.8001 12 16.8001C9.34904 16.8001 7.20001 14.6511 7.20001 12.0001C7.20001 9.34913 9.34904 7.2001 12 7.2001C14.651 7.2001 16.8 9.34913 16.8 12.0001Z" fill="#C4C4C4"/>
</svg>
