<svg width="16" height="17" viewBox="0 0 16 17" fill="none" xmlns="http://www.w3.org/2000/svg">
<path fill-rule="evenodd" clip-rule="evenodd" d="M9.54346 4.36952H9.06525C8.96436 3.8737 8.52545 3.5 8 3.5C7.47455 3.5 7.03563 3.8737 6.93475 4.36952H6.45654C6.35565 3.8737 5.91674 3.5 5.39129 3.5C4.86584 3.5 4.42693 3.8737 4.32604 4.36952H4.08694C3.79869 4.36952 3.52217 4.48409 3.31823 4.68782C3.11456 4.8917 3 5.16822 3 5.45654V12.4131C3 12.7013 3.11457 12.9778 3.31823 13.1818C3.52217 13.3854 3.79869 13.5 4.08694 13.5H11.9131C12.2013 13.5 12.4778 13.3854 12.6818 13.1818C12.8854 12.9778 13 12.7013 13 12.4131V5.45654C13 5.16822 12.8854 4.89171 12.6818 4.68782C12.4778 4.48408 12.2013 4.36952 11.9131 4.36952H11.674C11.5731 3.8737 11.1342 3.5 10.6087 3.5C10.0833 3.5 9.64434 3.8737 9.54346 4.36952ZM12.5653 6.54352V12.4131C12.5653 12.5862 12.4966 12.752 12.3742 12.8742C12.252 12.9966 12.0861 13.0653 11.9131 13.0653H4.08697C3.91396 13.0653 3.74807 12.9966 3.62587 12.8742C3.50351 12.752 3.4348 12.5861 3.4348 12.4131V6.54352H12.5653ZM9.54346 4.8044H7.38494C7.4736 5.055 7.71146 5.23545 7.99148 5.23916H8.00277C8.12148 5.24069 8.21735 5.33742 8.21735 5.45658C8.21735 5.57653 8.11996 5.67392 7.99993 5.67392C7.47448 5.67392 7.03557 5.30022 6.93469 4.8044H4.77617C4.8657 5.05763 5.10742 5.23916 5.39115 5.23916C5.51118 5.23916 5.60857 5.33655 5.60857 5.45658C5.60857 5.57653 5.51118 5.67392 5.39115 5.67392C4.8657 5.67392 4.42679 5.30022 4.3259 4.8044H4.0868C3.91378 4.8044 3.74789 4.87304 3.62569 4.99547C3.50333 5.1176 3.43462 5.28349 3.43462 5.45658V6.10876H12.5651V5.45658C12.5651 5.28349 12.4964 5.11761 12.374 4.99547C12.2518 4.87304 12.0859 4.8044 11.9129 4.8044H9.99366C10.0823 5.055 10.3202 5.23545 10.6002 5.23916H10.6115C10.7302 5.24069 10.8261 5.33742 10.8261 5.45658C10.8261 5.57653 10.7287 5.67392 10.6087 5.67392C10.0832 5.67392 9.64429 5.30022 9.5434 4.8044H9.54346ZM11.2237 4.36956C11.1342 4.11633 10.8924 3.9348 10.6087 3.9348C10.325 3.9348 10.0833 4.11633 9.99372 4.36956H11.2237ZM8.61498 4.36956C8.52545 4.11633 8.28373 3.9348 8 3.9348C7.71626 3.9348 7.47455 4.11633 7.38502 4.36956H8.61498ZM6.00628 4.36956C5.91675 4.11633 5.67503 3.9348 5.39129 3.9348C5.10756 3.9348 4.86584 4.11633 4.77631 4.36956H6.00628Z" fill="#183127"/>
<path fill-rule="evenodd" clip-rule="evenodd" d="M6.04348 7.89105C6.04348 7.76433 5.99304 7.64263 5.90351 7.55281C5.81369 7.46328 5.69198 7.41284 5.5652 7.41284H5.21742C5.09062 7.41284 4.96892 7.46328 4.87911 7.55281C4.78958 7.64263 4.73914 7.76434 4.73914 7.89105V8.23891C4.73914 8.36563 4.78958 8.4874 4.87911 8.57714C4.96893 8.66675 5.09064 8.71719 5.21742 8.71719H5.5652C5.69199 8.71719 5.81369 8.66675 5.90351 8.57714C5.99304 8.4874 6.04348 8.36561 6.04348 8.23891V7.89105ZM5.60872 7.89105V8.23891C5.60872 8.25041 5.60413 8.26154 5.59584 8.26955C5.58783 8.27785 5.57677 8.28236 5.56519 8.28236H5.21741C5.20584 8.28236 5.19478 8.27785 5.18677 8.26955C5.17847 8.26154 5.17389 8.25041 5.17389 8.23891V7.89105C5.17389 7.87955 5.17847 7.86849 5.18677 7.86041C5.19478 7.85218 5.20584 7.8476 5.21741 7.8476H5.56519C5.57677 7.8476 5.58783 7.85218 5.59584 7.86041C5.60413 7.86849 5.60872 7.87955 5.60872 7.89105Z" fill="#183127"/>
<path fill-rule="evenodd" clip-rule="evenodd" d="M6.04348 9.63038C6.04348 9.50359 5.99304 9.38189 5.90351 9.29207C5.81369 9.20254 5.69198 9.1521 5.5652 9.1521H5.21742C5.09062 9.1521 4.96892 9.20254 4.87911 9.29207C4.78958 9.38189 4.73914 9.5036 4.73914 9.63038V9.97816C4.73914 10.105 4.78958 10.2267 4.87911 10.3165C4.96893 10.406 5.09064 10.4564 5.21742 10.4564H5.5652C5.69199 10.4564 5.81369 10.406 5.90351 10.3165C5.99304 10.2267 6.04348 10.1049 6.04348 9.97816V9.63038ZM5.60872 9.63038V9.97816C5.60872 9.98974 5.60413 10.0008 5.59584 10.0088C5.58783 10.0171 5.57677 10.0217 5.56519 10.0217H5.21741C5.20584 10.0217 5.19478 10.0171 5.18677 10.0088C5.17847 10.0008 5.17389 9.98974 5.17389 9.97816V9.63038C5.17389 9.61881 5.17847 9.60775 5.18677 9.59974C5.19478 9.59144 5.20584 9.58686 5.21741 9.58686H5.56519C5.57677 9.58686 5.58783 9.59144 5.59584 9.59974C5.60413 9.60775 5.60872 9.61881 5.60872 9.63038Z" fill="#183127"/>
<path fill-rule="evenodd" clip-rule="evenodd" d="M6.04348 11.3699C6.04348 11.2432 5.99304 11.1214 5.90351 11.0316C5.81369 10.942 5.69198 10.8916 5.5652 10.8916H5.21742C5.09062 10.8916 4.96892 10.942 4.87911 11.0316C4.78958 11.1214 4.73914 11.2432 4.73914 11.3699V11.7177C4.73914 11.8445 4.78958 11.9662 4.87911 12.056C4.96893 12.1455 5.09064 12.1959 5.21742 12.1959H5.5652C5.69199 12.1959 5.81369 12.1455 5.90351 12.056C5.99304 11.9662 6.04348 11.8444 6.04348 11.7177V11.3699ZM5.60872 11.3699V11.7177C5.60872 11.7292 5.60413 11.7403 5.59584 11.7484C5.58783 11.7566 5.57677 11.7612 5.56519 11.7612H5.21741C5.20584 11.7612 5.19478 11.7566 5.18677 11.7484C5.17847 11.7403 5.17389 11.7292 5.17389 11.7177V11.3699C5.17389 11.3584 5.17847 11.3472 5.18677 11.3392C5.19478 11.3309 5.20584 11.3264 5.21741 11.3264H5.56519C5.57677 11.3264 5.58783 11.3309 5.59584 11.3392C5.60413 11.3472 5.60872 11.3584 5.60872 11.3699Z" fill="#183127"/>
<path fill-rule="evenodd" clip-rule="evenodd" d="M7.78261 7.89105C7.78261 7.76433 7.73217 7.64263 7.64264 7.55281C7.55282 7.46328 7.43111 7.41284 7.3044 7.41284H6.95655C6.82983 7.41284 6.70805 7.46328 6.61831 7.55281C6.52871 7.64263 6.47827 7.76434 6.47827 7.89105V8.23891C6.47827 8.36563 6.52871 8.4874 6.61831 8.57714C6.70806 8.66675 6.82984 8.71719 6.95655 8.71719H7.3044C7.43113 8.71719 7.55283 8.66675 7.64264 8.57714C7.73217 8.4874 7.78261 8.36561 7.78261 8.23891V7.89105ZM7.34785 7.89105V8.23891C7.34785 8.25041 7.34327 8.26154 7.33504 8.26955C7.32696 8.27785 7.3159 8.28236 7.3044 8.28236H6.95655C6.94505 8.28236 6.93391 8.27785 6.9259 8.26955C6.91761 8.26154 6.91309 8.25041 6.91309 8.23891V7.89105C6.91309 7.87955 6.91761 7.86849 6.9259 7.86041C6.93391 7.85218 6.94505 7.8476 6.95655 7.8476H7.3044C7.3159 7.8476 7.32696 7.85218 7.33504 7.86041C7.34327 7.86849 7.34785 7.87955 7.34785 7.89105Z" fill="#183127"/>
<path fill-rule="evenodd" clip-rule="evenodd" d="M7.78261 9.63038C7.78261 9.50359 7.73217 9.38189 7.64264 9.29207C7.55282 9.20254 7.43111 9.1521 7.3044 9.1521H6.95655C6.82983 9.1521 6.70805 9.20254 6.61831 9.29207C6.52871 9.38189 6.47827 9.5036 6.47827 9.63038V9.97816C6.47827 10.105 6.52871 10.2267 6.61831 10.3165C6.70806 10.406 6.82984 10.4564 6.95655 10.4564H7.3044C7.43113 10.4564 7.55283 10.406 7.64264 10.3165C7.73217 10.2267 7.78261 10.1049 7.78261 9.97816V9.63038ZM7.34785 9.63038V9.97816C7.34785 9.98974 7.34327 10.0008 7.33504 10.0088C7.32696 10.0171 7.3159 10.0217 7.3044 10.0217H6.95655C6.94505 10.0217 6.93391 10.0171 6.9259 10.0088C6.91761 10.0008 6.91309 9.98974 6.91309 9.97816V9.63038C6.91309 9.61881 6.91761 9.60775 6.9259 9.59974C6.93391 9.59144 6.94505 9.58686 6.95655 9.58686H7.3044C7.3159 9.58686 7.32696 9.59144 7.33504 9.59974C7.34327 9.60775 7.34785 9.61881 7.34785 9.63038Z" fill="#183127"/>
<path fill-rule="evenodd" clip-rule="evenodd" d="M7.78261 11.3699C7.78261 11.2432 7.73217 11.1214 7.64264 11.0316C7.55282 10.942 7.43111 10.8916 7.3044 10.8916H6.95655C6.82983 10.8916 6.70805 10.942 6.61831 11.0316C6.52871 11.1214 6.47827 11.2432 6.47827 11.3699V11.7177C6.47827 11.8445 6.52871 11.9662 6.61831 12.056C6.70806 12.1455 6.82984 12.1959 6.95655 12.1959H7.3044C7.43113 12.1959 7.55283 12.1455 7.64264 12.056C7.73217 11.9662 7.78261 11.8444 7.78261 11.7177V11.3699ZM7.34785 11.3699V11.7177C7.34785 11.7292 7.34327 11.7403 7.33504 11.7484C7.32696 11.7566 7.3159 11.7612 7.3044 11.7612H6.95655C6.94505 11.7612 6.93391 11.7566 6.9259 11.7484C6.91761 11.7403 6.91309 11.7292 6.91309 11.7177V11.3699C6.91309 11.3584 6.91761 11.3472 6.9259 11.3392C6.93391 11.3309 6.94505 11.3264 6.95655 11.3264H7.3044C7.3159 11.3264 7.32696 11.3309 7.33504 11.3392C7.34327 11.3472 7.34785 11.3584 7.34785 11.3699Z" fill="#183127"/>
<path fill-rule="evenodd" clip-rule="evenodd" d="M9.52187 7.89105C9.52187 7.76433 9.47143 7.64263 9.38183 7.55281C9.29208 7.46328 9.1703 7.41284 9.04359 7.41284H8.69574C8.56901 7.41284 8.44731 7.46328 8.3575 7.55281C8.26797 7.64263 8.21753 7.76434 8.21753 7.89105V8.23891C8.21753 8.36563 8.26797 8.4874 8.3575 8.57714C8.44732 8.66675 8.56903 8.71719 8.69574 8.71719H9.04359C9.17031 8.71719 9.29209 8.66675 9.38183 8.57714C9.47143 8.4874 9.52187 8.36561 9.52187 8.23891V7.89105ZM9.08704 7.89105V8.23891C9.08704 8.25041 9.08252 8.26154 9.07423 8.26955C9.06622 8.27785 9.05508 8.28236 9.04358 8.28236H8.69573C8.68423 8.28236 8.67317 8.27785 8.66509 8.26955C8.65686 8.26154 8.65228 8.25041 8.65228 8.23891V7.89105C8.65228 7.87955 8.65686 7.86849 8.66509 7.86041C8.67317 7.85218 8.68423 7.8476 8.69573 7.8476H9.04358C9.05508 7.8476 9.06622 7.85218 9.07423 7.86041C9.08252 7.86849 9.08704 7.87955 9.08704 7.89105Z" fill="#183127"/>
<path fill-rule="evenodd" clip-rule="evenodd" d="M9.52187 9.63038C9.52187 9.50359 9.47143 9.38189 9.38183 9.29207C9.29208 9.20254 9.1703 9.1521 9.04359 9.1521H8.69574C8.56901 9.1521 8.44731 9.20254 8.3575 9.29207C8.26797 9.38189 8.21753 9.5036 8.21753 9.63038V9.97816C8.21753 10.105 8.26797 10.2267 8.3575 10.3165C8.44732 10.406 8.56903 10.4564 8.69574 10.4564H9.04359C9.17031 10.4564 9.29209 10.406 9.38183 10.3165C9.47143 10.2267 9.52187 10.1049 9.52187 9.97816V9.63038ZM9.08704 9.63038V9.97816C9.08704 9.98974 9.08252 10.0008 9.07423 10.0088C9.06622 10.0171 9.05508 10.0217 9.04358 10.0217H8.69573C8.68423 10.0217 8.67317 10.0171 8.66509 10.0088C8.65686 10.0008 8.65228 9.98974 8.65228 9.97816V9.63038C8.65228 9.61881 8.65686 9.60775 8.66509 9.59974C8.67317 9.59144 8.68423 9.58686 8.69573 9.58686H9.04358C9.05508 9.58686 9.06622 9.59144 9.07423 9.59974C9.08252 9.60775 9.08704 9.61881 9.08704 9.63038Z" fill="#183127"/>
<path fill-rule="evenodd" clip-rule="evenodd" d="M9.52187 11.3699C9.52187 11.2432 9.47143 11.1214 9.38183 11.0316C9.29208 10.942 9.1703 10.8916 9.04359 10.8916H8.69574C8.56901 10.8916 8.44731 10.942 8.3575 11.0316C8.26797 11.1214 8.21753 11.2432 8.21753 11.3699V11.7177C8.21753 11.8445 8.26797 11.9662 8.3575 12.056C8.44732 12.1455 8.56903 12.1959 8.69574 12.1959H9.04359C9.17031 12.1959 9.29209 12.1455 9.38183 12.056C9.47143 11.9662 9.52187 11.8444 9.52187 11.7177V11.3699ZM9.08704 11.3699V11.7177C9.08704 11.7292 9.08252 11.7403 9.07423 11.7484C9.06622 11.7566 9.05508 11.7612 9.04358 11.7612H8.69573C8.68423 11.7612 8.67317 11.7566 8.66509 11.7484C8.65686 11.7403 8.65228 11.7292 8.65228 11.7177V11.3699C8.65228 11.3584 8.65686 11.3472 8.66509 11.3392C8.67317 11.3309 8.68423 11.3264 8.69573 11.3264H9.04358C9.05508 11.3264 9.06622 11.3309 9.07423 11.3392C9.08252 11.3472 9.08704 11.3584 9.08704 11.3699Z" fill="#183127"/>
<path fill-rule="evenodd" clip-rule="evenodd" d="M11.2609 7.89105C11.2609 7.76433 11.2104 7.64263 11.1209 7.55281C11.0311 7.46328 10.9094 7.41284 10.7826 7.41284H10.4348C10.308 7.41284 10.1863 7.46328 10.0965 7.55281C10.007 7.64263 9.95654 7.76434 9.95654 7.89105V8.23891C9.95654 8.36563 10.007 8.4874 10.0965 8.57714C10.1863 8.66675 10.308 8.71719 10.4348 8.71719H10.7826C10.9094 8.71719 11.0311 8.66675 11.1209 8.57714C11.2104 8.4874 11.2609 8.36561 11.2609 8.23891V7.89105ZM10.8261 7.89105V8.23891C10.8261 8.25041 10.8215 8.26154 10.8132 8.26955C10.8052 8.27785 10.7942 8.28236 10.7826 8.28236H10.4348C10.4232 8.28236 10.4122 8.27785 10.4042 8.26955C10.3959 8.26154 10.3913 8.25041 10.3913 8.23891V7.89105C10.3913 7.87955 10.3959 7.86849 10.4042 7.86041C10.4122 7.85218 10.4232 7.8476 10.4348 7.8476H10.7826C10.7942 7.8476 10.8052 7.85218 10.8132 7.86041C10.8215 7.86849 10.8261 7.87955 10.8261 7.89105Z" fill="#183127"/>
<path fill-rule="evenodd" clip-rule="evenodd" d="M11.2609 9.63038C11.2609 9.50359 11.2104 9.38189 11.1209 9.29207C11.0311 9.20254 10.9094 9.1521 10.7826 9.1521H10.4348C10.308 9.1521 10.1863 9.20254 10.0965 9.29207C10.007 9.38189 9.95654 9.5036 9.95654 9.63038V9.97816C9.95654 10.105 10.007 10.2267 10.0965 10.3165C10.1863 10.406 10.308 10.4564 10.4348 10.4564H10.7826C10.9094 10.4564 11.0311 10.406 11.1209 10.3165C11.2104 10.2267 11.2609 10.1049 11.2609 9.97816V9.63038ZM10.8261 9.63038V9.97816C10.8261 9.98974 10.8215 10.0008 10.8132 10.0088C10.8052 10.0171 10.7942 10.0217 10.7826 10.0217H10.4348C10.4232 10.0217 10.4122 10.0171 10.4042 10.0088C10.3959 10.0008 10.3913 9.98974 10.3913 9.97816V9.63038C10.3913 9.61881 10.3959 9.60775 10.4042 9.59974C10.4122 9.59144 10.4232 9.58686 10.4348 9.58686H10.7826C10.7942 9.58686 10.8052 9.59144 10.8132 9.59974C10.8215 9.60775 10.8261 9.61881 10.8261 9.63038Z" fill="#183127"/>
<path fill-rule="evenodd" clip-rule="evenodd" d="M11.2609 11.3699C11.2609 11.2432 11.2104 11.1214 11.1209 11.0316C11.0311 10.942 10.9094 10.8916 10.7826 10.8916H10.4348C10.308 10.8916 10.1863 10.942 10.0965 11.0316C10.007 11.1214 9.95654 11.2432 9.95654 11.3699V11.7177C9.95654 11.8445 10.007 11.9662 10.0965 12.056C10.1863 12.1455 10.308 12.1959 10.4348 12.1959H10.7826C10.9094 12.1959 11.0311 12.1455 11.1209 12.056C11.2104 11.9662 11.2609 11.8444 11.2609 11.7177V11.3699ZM10.8261 11.3699V11.7177C10.8261 11.7292 10.8215 11.7403 10.8132 11.7484C10.8052 11.7566 10.7942 11.7612 10.7826 11.7612H10.4348C10.4232 11.7612 10.4122 11.7566 10.4042 11.7484C10.3959 11.7403 10.3913 11.7292 10.3913 11.7177V11.3699C10.3913 11.3584 10.3959 11.3472 10.4042 11.3392C10.4122 11.3309 10.4232 11.3264 10.4348 11.3264H10.7826C10.7942 11.3264 10.8052 11.3309 10.8132 11.3392C10.8215 11.3472 10.8261 11.3584 10.8261 11.3699Z" fill="#183127"/>
</svg>
