<svg width="16" height="17" viewBox="0 0 16 17">
<path d="M13 8.5C13 11.2615 10.7615 13.5 8 13.5C5.23855 13.5 3 11.2615 3 8.5C3 5.73855 5.23855 3.5 8 3.5C10.7615 3.5 13 5.73855 13 8.5Z" stroke="#183127" stroke-miterlimit="10"/>
<path d="M8 8.48846V4.92529" stroke="#183127" stroke-miterlimit="10" stroke-linecap="round"/>
<path d="M8.00232 8.50013L10.4433 7.09106" stroke="#183127" stroke-miterlimit="10" stroke-linecap="round"/>
<path d="M4.36291 8.49989C4.36291 8.61295 4.27124 8.70462 4.1581 8.70462C4.04504 8.70462 3.95337 8.61295 3.95337 8.49989C3.95337 8.38684 4.04504 8.29517 4.1581 8.29517C4.27124 8.29517 4.36291 8.38684 4.36291 8.49989Z" fill="#183127"/>
<path d="M12.0467 8.49989C12.0467 8.61295 11.9551 8.70462 11.842 8.70462C11.7289 8.70462 11.6372 8.61295 11.6372 8.49989C11.6372 8.38684 11.7289 8.29517 11.842 8.29517C11.9551 8.29517 12.0467 8.38684 12.0467 8.49989Z" fill="#183127"/>
<path d="M4.77455 6.40098C4.87251 6.45755 4.90608 6.58279 4.84951 6.68075C4.79294 6.77864 4.66778 6.81221 4.56982 6.75564C4.47185 6.69915 4.43836 6.57391 4.49485 6.47595C4.55142 6.37798 4.67666 6.34449 4.77455 6.40098Z" fill="#183127"/>
<path d="M11.4299 10.2447C11.5278 10.3013 11.5614 10.4265 11.5048 10.5244C11.4483 10.6224 11.323 10.656 11.2251 10.5994C11.1272 10.5428 11.0936 10.4177 11.1502 10.3197C11.2067 10.2217 11.332 10.1882 11.4299 10.2447Z" fill="#183127"/>
<path d="M6.25592 5.07071C6.31241 5.16859 6.27884 5.29384 6.18096 5.3504C6.08299 5.40689 5.95774 5.3734 5.90126 5.27544C5.84469 5.17747 5.87826 5.0523 5.97615 4.99574C6.07412 4.93917 6.19936 4.97274 6.25592 5.07071Z" fill="#183127"/>
<path d="M10.0985 11.7244C10.1549 11.8224 10.1215 11.9477 10.0235 12.0041C9.92552 12.0607 9.80027 12.0271 9.74379 11.9292C9.68722 11.8313 9.72079 11.706 9.81868 11.6496C9.91664 11.593 10.0419 11.6266 10.0985 11.7244Z" fill="#183127"/>
<path d="M8.20462 4.6581C8.20462 4.77124 8.11295 4.86291 7.99989 4.86291C7.88684 4.86291 7.79517 4.77124 7.79517 4.6581C7.79517 4.54504 7.88684 4.45337 7.99989 4.45337C8.11295 4.45337 8.20462 4.54504 8.20462 4.6581Z" fill="#183127"/>
<path d="M8.20462 12.3423C8.20462 12.4553 8.11295 12.547 7.99989 12.547C7.88684 12.547 7.79517 12.4553 7.79517 12.3423C7.79517 12.2291 7.88684 12.1375 7.99989 12.1375C8.11295 12.1375 8.20462 12.2291 8.20462 12.3423Z" fill="#183127"/>
<path d="M10.0241 4.99501C10.1221 5.05158 10.1556 5.17682 10.0991 5.2747C10.0425 5.37267 9.91726 5.40624 9.81929 5.34967C9.7214 5.2931 9.68783 5.16786 9.7444 5.06998C9.80089 4.97201 9.92613 4.93844 10.0241 4.99501Z" fill="#183127"/>
<path d="M6.18047 11.6503C6.27843 11.7069 6.31192 11.832 6.25543 11.93C6.19886 12.0279 6.07362 12.0614 5.97574 12.0049C5.87777 11.9484 5.8442 11.8231 5.90077 11.7253C5.95734 11.6273 6.0825 11.5937 6.18047 11.6503Z" fill="#183127"/>
<path d="M11.5041 6.47615C11.5607 6.57411 11.5271 6.69936 11.4292 6.75592C11.3313 6.81241 11.206 6.77884 11.1496 6.68096C11.093 6.58299 11.1266 6.45774 11.2244 6.40126C11.3224 6.34469 11.4477 6.37826 11.5041 6.47615Z" fill="#183127"/>
<path d="M4.85016 10.3187C4.90665 10.4166 4.87316 10.5419 4.77519 10.5985C4.67723 10.6549 4.55206 10.6215 4.4955 10.5235C4.43893 10.4255 4.4725 10.3003 4.57046 10.2438C4.66835 10.1872 4.7936 10.2208 4.85016 10.3187Z" fill="#183127"/>
</svg>
