<svg width="30" height="30" viewBox="0 0 300 300">
<circle cx="150" cy="150" r="150" fill="#183127"/>
<path d="M171.654 117.959C164.462 125.817 151.625 133.355 146.479 133.35C141.334 133.355 128.497 125.817 121.305 117.959C114.113 110.102 107.598 104.264 107.501 92.5988C107.404 80.9336 118.138 70.5394 127.712 70.5004C137.286 70.4614 139.779 73.1425 146.479 79.9282C153.18 73.1425 155.673 70.4614 165.247 70.5004C174.821 70.5394 185.555 80.9336 185.458 92.5988C185.361 104.264 178.846 110.102 171.654 117.959Z" fill="#119DA4"/>
<g filter="url(#filter0_dd_226_6828)">
<path d="M127.712 70.5004C118.138 70.5394 107.404 80.9336 107.501 92.5988C107.538 97.0349 107.274 103.182 118.188 114.495C118.188 114.495 112.914 104.815 113.893 98.7823C115.296 94.0686 118.518 94.0686 120.753 94.0686C124.303 94.0686 126.678 95.9541 137.592 103.653C148.506 111.352 152.259 114.96 158.953 115.595C172.206 116.852 177.82 110.324 184.523 99.7251C172.637 107.089 163.49 98.6013 146.479 79.9283C139.779 73.1425 137.286 70.4614 127.712 70.5004Z" fill="url(#paint0_linear_226_6828)" shape-rendering="crispEdges"/>
</g>
<path d="M178.988 140.874C176.042 140.237 172.358 138.161 171.616 136.892C170.872 135.625 170.847 131.372 171.716 128.464C172.584 125.557 173.06 123.108 175.877 121.399C178.694 119.69 182.767 120.835 184.16 123.189C185.552 125.543 185.261 126.545 184.582 129.176C187.197 129.848 188.208 130.075 189.581 132.441C190.954 134.806 189.982 138.953 187.137 140.614C184.291 142.275 181.934 141.512 178.988 140.874Z" fill="#119DA4"/>
<g filter="url(#filter1_dd_226_6828)">
<path d="M184.16 123.19C182.768 120.835 178.692 119.692 175.872 121.402C174.8 122.052 173.269 122.876 172.097 127.202C172.097 127.202 173.687 124.502 175.294 123.872C176.641 123.536 177.107 124.331 177.43 124.881C177.943 125.757 177.828 126.615 177.534 130.419C177.241 134.222 176.906 135.669 177.719 137.411C179.329 140.86 181.725 141.301 185.268 141.421C181.763 139.555 182.503 136.073 184.581 129.18C185.262 126.547 185.553 125.545 184.16 123.19Z" fill="url(#paint1_linear_226_6828)" shape-rendering="crispEdges"/>
</g>
<path d="M82.1793 157.721C82.0861 158.56 82.0394 159.423 82.0394 160.309C82.0394 161.988 81.9462 163.504 81.7597 164.856C81.5732 166.209 81.4567 167.142 81.41 167.655C81.3634 168.121 81.2935 168.588 81.2002 169.054V169.544C81.2002 170.383 81.0137 171.223 80.6408 172.062L80.431 175.21L80.1512 181.856V185.354C80.1512 187.127 80.058 188.083 79.8715 188.223L79.9414 190.042V190.811L79.8715 191.651C79.8715 191.837 79.8249 191.93 79.7316 191.93C79.8249 192.49 79.5918 193.096 79.0323 193.749C78.5195 194.356 77.8668 194.752 77.0742 194.939L75.8154 195.149C75.6289 195.149 75.3725 195.172 75.0461 195.219C74.7198 195.219 74.44 195.172 74.2069 195.079C73.9738 194.985 73.7407 194.869 73.5076 194.729C73.0414 194.449 72.715 193.913 72.5285 193.12C72.3886 192.887 72.1089 191.464 71.6893 188.852C71.6893 188.293 71.6427 187.593 71.5495 186.754L71.7592 185.075V183.745C71.7592 182.906 71.8525 182.323 72.039 181.996C71.8525 181.716 71.969 181.11 72.3886 180.177C72.0623 179.758 72.0856 178.825 72.4586 177.379C72.2721 176.773 72.2721 176.376 72.4586 176.19C72.5518 175.91 72.5984 175.257 72.5984 174.231L72.6684 173.531C72.6684 172.179 72.8082 170.943 73.088 169.823C72.9947 169.684 72.9947 169.31 73.088 168.704C73.1812 168.098 73.2512 167.375 73.2978 166.535V166.046C73.3444 165.346 73.3677 164.6 73.3677 163.807L73.4376 163.177C73.4376 162.898 73.4843 162.338 73.5775 161.498C73.7174 160.659 73.8339 159.773 73.9272 158.84H73.7873C68.8454 160.192 65.8149 160.869 64.696 160.869L63.5071 160.939C62.8078 160.939 62.0852 160.822 61.3392 160.589C60.9662 160.402 60.6865 159.913 60.5 159.12C60.5 157.581 60.8264 156.461 61.4791 155.762C62.1784 155.062 63.4605 154.409 65.3254 153.803C65.7916 153.756 68.6822 152.777 73.9971 150.865L77.0042 150.165C77.5637 149.979 78.4495 149.885 79.6617 149.885C80.8739 149.885 81.8763 149.745 82.6688 149.465C83.508 149.139 84.4172 148.906 85.3962 148.766C86.3753 148.579 87.401 148.393 88.4733 148.206C88.9861 148.02 89.9186 148.066 91.2706 148.346C91.7835 148.346 92.5994 148.882 93.7183 149.955L94.1379 150.935C94.1379 151.214 94.2078 151.424 94.3477 151.564C94.5342 152.823 94.2544 153.64 93.5085 154.013C93.2288 154.153 92.7392 154.339 92.0399 154.572C91.1074 154.572 88.7763 155.039 85.0466 155.972C84.8601 155.972 83.9276 156.112 82.2492 156.391L82.1793 157.301V157.721Z" fill="white"/>
<path d="M103.596 174.93C103.27 173.065 102.361 172.202 100.869 172.342C100.03 172.389 99.3071 172.948 98.701 174.021C97.8618 175.653 97.4889 177.775 97.5821 180.387C97.722 182.952 97.9084 184.818 98.1416 185.984C98.4213 187.103 98.8875 188.083 99.5402 188.922C99.9132 189.575 100.473 189.878 101.219 189.832C102.524 189.832 103.48 188.736 104.086 186.544L104.645 184.865C104.878 184.631 104.925 184.398 104.785 184.165C105.251 182.999 105.508 181.623 105.554 180.037C105.088 179.711 104.809 179.408 104.715 179.128C104.436 178.335 104.296 177.799 104.296 177.519C103.969 177.286 103.783 176.843 103.736 176.19C103.69 175.537 103.643 175.117 103.596 174.93ZM90.7986 181.507L91.0783 177.939C91.4047 174.721 92.3837 171.969 94.0155 169.684C95.6007 167.771 97.8385 166.792 100.729 166.745H101.149C103.853 166.745 105.811 167.328 107.023 168.494C108.328 169.52 109.284 170.64 109.89 171.852C110.543 173.065 110.963 173.951 111.149 174.511C111.336 175.07 111.452 175.887 111.499 176.959C111.592 178.965 111.196 180.107 110.31 180.387C110.963 184.818 110.566 188.339 109.121 190.951C108.655 192.024 107.979 193.19 107.093 194.449C106.44 195.288 105.275 195.755 103.596 195.848C101.918 195.848 100.449 195.755 99.1906 195.568C97.9784 195.382 96.6263 194.799 95.1344 193.819C93.6425 192.793 92.5935 191.138 91.9874 188.852C91.3347 186.66 90.9384 184.212 90.7986 181.507Z" fill="white"/>
<path d="M126.032 168.354L125.263 177.869L125.682 176.889C125.869 176.47 126.545 175.49 127.71 173.951C127.71 173.811 128.433 172.575 129.878 170.243L131.067 168.844L131.696 167.865C132.582 167.165 133.328 166.815 133.934 166.815C135.193 166.629 136.545 167.002 137.99 167.935C138.317 167.981 138.736 168.331 139.249 168.984C140.042 169.59 140.391 170.453 140.298 171.572C140.298 171.666 140.275 171.806 140.228 171.992C139.342 179.268 138.876 184.375 138.83 187.313C138.783 190.205 139.016 192.63 139.529 194.589C139.902 196.221 139.296 197.364 137.711 198.017C137.291 198.297 136.638 198.343 135.753 198.157C134.96 198.157 134.354 198.04 133.934 197.807C133.561 197.62 133.165 197.154 132.745 196.408L132.396 195.009C132.209 194.636 132.116 194.123 132.116 193.47L131.836 191.441C131.883 191.347 131.906 190.741 131.906 189.622L131.976 187.803C131.836 187.15 131.86 185.867 132.046 183.955L132.186 180.947V179.198C132.233 179.058 132.093 178.732 131.766 178.219C130.554 179.151 129.202 182.276 127.71 187.593L125.892 193.19C125.053 196.175 124.144 197.784 123.165 198.017L122.395 198.157C121.743 198.157 120.857 197.97 119.738 197.597C118.852 196.618 118.409 195.638 118.409 194.659C118.502 194.472 118.526 194.262 118.479 194.029C118.339 193.423 118.386 192.583 118.619 191.511C118.572 191.371 118.549 191.184 118.549 190.951L118.619 189.902C118.526 189.668 118.432 189.016 118.339 187.943C118.246 186.823 118.246 185.984 118.339 185.424C118.246 185.238 118.386 184.608 118.759 183.535C118.386 182.976 118.176 182.346 118.129 181.647C117.943 179.734 117.873 178.312 117.92 177.379C118.013 176.4 118.059 175.49 118.059 174.651C117.966 173.811 117.943 172.808 117.989 171.642L118.479 165.976L118.969 161.918C118.969 161.592 118.852 161.102 118.619 160.449C118.432 159.749 118.386 158.933 118.479 158C118.572 157.068 118.666 156.485 118.759 156.251C118.899 155.972 119.085 155.272 119.318 154.153C119.318 153.22 119.411 152.52 119.598 152.054L120.018 150.795C120.064 150.468 120.67 149.932 121.836 149.186H122.605C124.423 149.326 125.752 149.629 126.591 150.095C126.964 150.328 127.057 151.144 126.871 152.544C126.778 154.503 126.708 155.715 126.661 156.182C126.615 156.648 126.498 158.677 126.312 162.268C126.125 165.859 126.032 167.888 126.032 168.354Z" fill="white"/>
<path d="M149.234 152.963C149.234 152.823 149.258 152.66 149.304 152.474V150.235C149.351 150.095 149.374 149.909 149.374 149.675C149.374 149.396 149.421 149.162 149.514 148.976C149.514 148.369 149.77 147.81 150.283 147.297C150.47 146.924 150.726 146.69 151.053 146.597C151.659 146.364 152.824 146.551 154.549 147.157C154.503 147.11 154.549 147.134 154.689 147.227C154.876 147.273 154.992 147.297 155.039 147.297C155.505 147.343 155.901 147.763 156.228 148.556C156.228 149.069 156.321 150.748 156.507 153.593C156.694 156.438 156.717 158.77 156.577 160.589V161.289C156.437 164.833 156.368 167.818 156.368 170.243C156.274 170.523 156.274 170.826 156.368 171.153C156.274 171.712 156.228 173.065 156.228 175.21L156.787 174.441L157.137 173.741C157.137 173.601 157.23 173.438 157.417 173.251C157.603 173.018 157.72 172.855 157.766 172.762C157.813 172.622 157.883 172.505 157.976 172.412C158.069 172.272 158.139 172.155 158.186 172.062C158.279 171.922 158.535 171.712 158.955 171.433C158.955 171.293 159.211 170.989 159.724 170.523L162.941 166.465L164.76 165.206C164.946 164.926 165.412 164.693 166.158 164.507C166.951 164.273 167.673 164.18 168.326 164.227C169.025 163.807 170.051 164.04 171.403 164.926C172.103 165.579 172.126 166.396 171.473 167.375C170.308 169.101 169.608 170.103 169.375 170.383L166.368 174.581L165.529 175.91C163.897 178.009 162.871 179.268 162.452 179.688C162.079 180.061 161.916 180.387 161.962 180.667C162.568 181.273 163.081 181.67 163.501 181.856C163.687 182.09 163.85 182.299 163.99 182.486C164.177 182.626 164.27 182.719 164.27 182.766L167.627 186.124C169.352 187.989 170.634 189.529 171.473 190.741L174.69 194.309C175.483 194.775 175.879 195.265 175.879 195.778C175.879 196.291 175.436 196.734 174.55 197.107C174.27 197.387 173.408 197.457 171.963 197.317C170.984 197.504 170.261 197.481 169.795 197.247C168.489 197.201 167.23 196.758 166.018 195.918C165.226 195.312 164.829 194.869 164.829 194.589C164.596 194.262 164.363 193.983 164.13 193.749C163.85 193.376 163.617 193.026 163.431 192.7C163.058 192.513 162.592 191.907 162.032 190.881C161.613 190.601 161.403 190.438 161.403 190.391C161.403 190.298 161.263 190.135 160.983 189.902C160.703 189.668 160.517 189.529 160.424 189.482C160.424 189.295 160.027 188.712 159.235 187.733C158.955 187.593 158.722 187.406 158.535 187.173C158.396 186.893 158.349 186.754 158.396 186.754L157.067 185.075L156.507 184.235C156.507 187.78 156.857 191.347 157.556 194.939C157.65 195.685 157.696 196.128 157.696 196.268C157.743 196.408 157.766 196.524 157.766 196.618C157.813 196.758 157.836 196.851 157.836 196.898L157.347 196.688C157.486 196.781 157.626 197.037 157.766 197.457C157.906 197.877 157.953 198.157 157.906 198.297C157.486 198.763 157.207 199.066 157.067 199.206C156.974 199.346 156.671 199.439 156.158 199.486C155.692 199.533 155.435 199.463 155.388 199.276C154.549 198.856 154.06 198.577 153.92 198.437C153.64 198.39 153.081 198.157 152.241 197.737C152.195 197.55 152.125 197.411 152.032 197.317C151.612 197.037 151.286 196.688 151.053 196.268C150.866 196.175 150.656 195.848 150.423 195.288C150.004 194.496 149.794 193.633 149.794 192.7C149.701 192.327 149.631 192.117 149.584 192.07C149.537 192.024 149.514 191.837 149.514 191.511L149.304 189.692C149.164 189.179 149.141 188.736 149.234 188.363L148.885 187.243L148.745 184.795L148.885 183.815C148.605 183.395 148.582 182.789 148.815 181.996V181.577C148.768 181.483 148.721 181.064 148.675 180.317C148.628 179.571 148.628 179.128 148.675 178.988C148.721 178.848 148.745 178.685 148.745 178.498C148.652 177.845 148.605 177.262 148.605 176.749V175.98C148.372 171.316 148.255 168.937 148.255 168.844V166.885C148.209 166.559 148.232 165.789 148.325 164.577C148.465 163.364 148.512 162.385 148.465 161.638C148.465 160.892 148.512 160.426 148.605 160.239C148.605 159.819 148.652 159.4 148.745 158.98V158.21C148.791 158.07 148.838 157.627 148.885 156.881L149.234 152.963Z" fill="white"/>
<path d="M191.329 177.309C191.375 177.169 191.469 176.353 191.608 174.861C191.515 174.721 191.399 174.208 191.259 173.321C190.886 172.575 190.396 172.016 189.79 171.642C189.044 171.316 188.601 171.153 188.461 171.153C188.042 171.293 187.739 171.456 187.552 171.642C187.412 171.782 187.016 172.435 186.363 173.601C185.757 174.767 185.244 176.703 184.825 179.408C184.452 182.113 184.265 184.072 184.265 185.284C184.265 186.497 184.312 187.989 184.405 189.762C184.499 191.487 184.872 192.304 185.524 192.21C186.13 192.117 186.97 190.438 188.042 187.173C188.088 186.94 188.252 186.52 188.531 185.914L191.329 177.309ZM199.511 174.441C199.511 176.913 199.767 179.175 200.28 181.227C200.513 183.279 200.933 185.471 201.539 187.803C201.679 188.736 201.725 189.202 201.679 189.202C202.844 191.767 203.497 193.306 203.637 193.819C203.777 194.286 203.753 194.682 203.567 195.009V194.939C203.427 195.358 202.984 195.732 202.238 196.058C201.539 196.431 200.91 196.664 200.35 196.758C198.578 197.317 197.529 196.641 197.203 194.729C197.017 194.589 196.737 194.309 196.364 193.889C196.038 193.423 195.851 193.05 195.804 192.77C195.758 192.443 195.595 192.14 195.315 191.861C195.222 191.627 195.012 191.324 194.685 190.951C194.359 190.578 194.173 190.205 194.126 189.832L193.916 187.943L193.776 187.873C193.03 189.412 192.541 190.485 192.308 191.091C191.748 192.677 190.769 194.496 189.371 196.548C187.785 198.32 185.851 198.833 183.566 198.087C182.727 198.04 182.051 197.784 181.538 197.317C181.072 196.851 180.745 196.594 180.559 196.548C180.279 196.454 179.883 196.105 179.37 195.498C178.531 194.379 178.018 192.723 177.832 190.531V188.712C177.971 188.479 177.971 187.36 177.832 185.354V184.935C177.552 183.535 177.412 182.696 177.412 182.416C177.412 182.136 177.459 181.763 177.552 181.297C177.645 180.83 177.668 180.55 177.622 180.457C177.575 180.317 177.552 180.107 177.552 179.828V178.778L177.902 175C178.414 173.368 178.974 171.899 179.58 170.593C179.766 169.8 180.116 169.171 180.629 168.704C181.794 167.445 182.424 166.722 182.517 166.535C182.843 165.836 184.056 165.276 186.154 164.856L187.342 164.926C187.809 164.926 188.228 164.996 188.601 165.136C188.974 165.23 189.231 165.276 189.371 165.276C190.023 165.603 190.559 165.766 190.979 165.766C191.399 165.766 192.098 166.092 193.077 166.745C193.357 166.792 194.056 167.188 195.175 167.935C196.387 168.727 197.087 169.171 197.273 169.264L199.091 169.893C199.604 170.313 199.861 170.546 199.861 170.593C199.861 170.64 199.744 171.922 199.511 174.441Z" fill="white"/>
<path d="M209.037 175.98L209.806 172.412L209.876 170.873C209.97 170.826 210.086 170.523 210.226 169.963C210.459 168.238 211.415 167.375 213.093 167.375C213.979 167.422 214.935 167.678 215.96 168.144C216.333 168.144 216.613 168.308 216.8 168.634C217.033 168.681 217.243 168.821 217.429 169.054C217.616 169.287 217.639 169.614 217.499 170.033C217.359 170.406 217.266 170.733 217.219 171.013C217.219 171.246 217.103 172.062 216.87 173.461C216.217 176.959 215.937 179.315 216.03 180.527L219.807 174.791L221.205 172.272C221.998 171.852 222.721 171.572 223.373 171.433C223.7 171.433 224.073 171.502 224.492 171.642C225.844 171.829 226.52 172.016 226.52 172.202L227.36 172.762C227.919 173.415 228.199 173.951 228.199 174.371C228.245 174.791 228.199 175.21 228.059 175.63C227.966 176.003 227.826 176.493 227.639 177.099C227.639 177.146 227.15 179.804 226.171 185.075L228.968 179.058L229.667 178.149C229.667 177.729 230.134 176.843 231.066 175.49L231.765 174.231C231.765 174.091 231.929 173.858 232.255 173.531C232.395 173.531 232.535 173.321 232.675 172.902C233.281 171.969 233.84 171.386 234.353 171.153C235.146 170.873 236.125 170.826 237.29 171.013L238.199 171.433C238.386 171.806 238.526 172.016 238.619 172.062H238.829C239.388 172.575 239.598 173.158 239.458 173.811C239.272 174.697 239.178 175.28 239.178 175.56L238.409 181.017C238.316 181.11 238.269 181.25 238.269 181.437C238.176 181.53 238.036 182.789 237.85 185.214C237.71 187.64 237.64 190.018 237.64 192.35L237.71 193.19L238.059 194.379L238.549 195.498C238.642 196.058 238.502 196.524 238.129 196.898C237.803 197.317 237.383 197.527 236.871 197.527C233.7 197.434 231.975 196.431 231.695 194.519C231.556 194.286 231.486 194.029 231.486 193.749C231.486 193.47 231.392 193.05 231.206 192.49V191.721L231.346 190.671C231.206 190.671 231.136 189.925 231.136 188.433C231.136 186.893 231.183 186.007 231.276 185.774C231.462 184.981 231.556 184.142 231.556 183.256C231.416 183.442 231.183 183.722 230.856 184.095C230.204 184.841 229.784 185.401 229.597 185.774L228.269 188.572C227.243 190.904 226.474 192.397 225.961 193.05C225.448 193.703 224.609 194.006 223.443 193.959C222.278 193.913 221.555 193.749 221.275 193.47C220.902 193.283 220.599 193.143 220.366 193.05C220.18 192.91 220.11 192.374 220.156 191.441V190.741L221.066 185.005C221.345 183.978 221.485 183.372 221.485 183.186L221.765 181.507V180.177L221.066 181.157L220.436 182.416C220.25 182.603 220.156 182.836 220.156 183.116C219.923 183.256 219.737 183.512 219.597 183.885L216.87 189.412C216.077 191.044 215.634 192.28 215.541 193.12C215.261 193.586 214.911 194.123 214.492 194.729C214.119 195.335 213.699 195.615 213.233 195.568C212.813 195.475 212.51 195.358 212.324 195.219C212.137 195.079 212.068 194.892 212.114 194.659C211.555 194.892 211.112 194.705 210.785 194.099L209.107 191.93C208.921 191.791 208.827 191.534 208.827 191.161C208.967 190.601 208.967 190.135 208.827 189.762C208.687 189.389 208.641 189.085 208.687 188.852C208.594 188.433 208.548 187.85 208.548 187.103C208.548 186.217 208.478 185.564 208.338 185.144C208.338 184.771 208.384 184.398 208.478 184.025V183.326C208.384 181.273 208.524 180.061 208.897 179.688C208.617 179.268 208.641 178.312 208.967 176.819L209.037 175.98Z" fill="white"/>
<defs>
<filter id="filter0_dd_226_6828" x="87.5002" y="50.5" width="137.023" height="95.249" filterUnits="userSpaceOnUse" color-interpolation-filters="sRGB">
<feFlood flood-opacity="0" result="BackgroundImageFix"/>
<feColorMatrix in="SourceAlpha" type="matrix" values="0 0 0 0 0 0 0 0 0 0 0 0 0 0 0 0 0 0 127 0" result="hardAlpha"/>
<feOffset dx="20"/>
<feGaussianBlur stdDeviation="10"/>
<feComposite in2="hardAlpha" operator="out"/>
<feColorMatrix type="matrix" values="0 0 0 0 0 0 0 0 0 0 0 0 0 0 0 0 0 0 0.2 0"/>
<feBlend mode="normal" in2="BackgroundImageFix" result="effect1_dropShadow_226_6828"/>
<feColorMatrix in="SourceAlpha" type="matrix" values="0 0 0 0 0 0 0 0 0 0 0 0 0 0 0 0 0 0 127 0" result="hardAlpha"/>
<feOffset dy="10"/>
<feGaussianBlur stdDeviation="10"/>
<feComposite in2="hardAlpha" operator="out"/>
<feColorMatrix type="matrix" values="0 0 0 0 0 0 0 0 0 0 0 0 0 0 0 0 0 0 0.2 0"/>
<feBlend mode="normal" in2="effect1_dropShadow_226_6828" result="effect2_dropShadow_226_6828"/>
<feBlend mode="normal" in="SourceGraphic" in2="effect2_dropShadow_226_6828" result="shape"/>
</filter>
<filter id="filter1_dd_226_6828" x="152.097" y="100.582" width="58.1714" height="65.8389" filterUnits="userSpaceOnUse" color-interpolation-filters="sRGB">
<feFlood flood-opacity="0" result="BackgroundImageFix"/>
<feColorMatrix in="SourceAlpha" type="matrix" values="0 0 0 0 0 0 0 0 0 0 0 0 0 0 0 0 0 0 127 0" result="hardAlpha"/>
<feOffset dx="5"/>
<feGaussianBlur stdDeviation="10"/>
<feComposite in2="hardAlpha" operator="out"/>
<feColorMatrix type="matrix" values="0 0 0 0 0 0 0 0 0 0 0 0 0 0 0 0 0 0 0.2 0"/>
<feBlend mode="normal" in2="BackgroundImageFix" result="effect1_dropShadow_226_6828"/>
<feColorMatrix in="SourceAlpha" type="matrix" values="0 0 0 0 0 0 0 0 0 0 0 0 0 0 0 0 0 0 127 0" result="hardAlpha"/>
<feOffset dy="5"/>
<feGaussianBlur stdDeviation="10"/>
<feComposite in2="hardAlpha" operator="out"/>
<feColorMatrix type="matrix" values="0 0 0 0 0 0 0 0 0 0 0 0 0 0 0 0 0 0 0.2 0"/>
<feBlend mode="normal" in2="effect1_dropShadow_226_6828" result="effect2_dropShadow_226_6828"/>
<feBlend mode="normal" in="SourceGraphic" in2="effect2_dropShadow_226_6828" result="shape"/>
</filter>
<linearGradient id="paint0_linear_226_6828" x1="167.528" y1="122.351" x2="120.358" y2="70.8621" gradientUnits="userSpaceOnUse">
<stop stop-color="white" stop-opacity="0"/>
<stop offset="0.563563" stop-color="#119DA4" stop-opacity="0.45"/>
<stop offset="0.857608" stop-color="#084D51" stop-opacity="0.373811"/>
<stop offset="1" stop-opacity="0.3"/>
</linearGradient>
<linearGradient id="paint1_linear_226_6828" x1="177.317" y1="140.502" x2="183.226" y2="121.496" gradientUnits="userSpaceOnUse">
<stop stop-color="white" stop-opacity="0"/>
<stop offset="0.563563" stop-color="#119DA4" stop-opacity="0.45"/>
<stop offset="0.857608" stop-color="#084D51" stop-opacity="0.373811"/>
<stop offset="1" stop-opacity="0.3"/>
</linearGradient>
</defs>
</svg>
