<svg width="16" height="17" viewBox="0 0 16 17" >
<g clip-path="url(#clip0_310_4752)">
<path d="M7.99337 1.83325C4.31337 1.83325 1.33337 4.81992 1.33337 8.49992C1.33337 12.1799 4.31337 15.1666 7.99337 15.1666C11.68 15.1666 14.6667 12.1799 14.6667 8.49992C14.6667 4.81992 11.68 1.83325 7.99337 1.83325ZM12.6134 5.83325H10.6467C10.4334 4.99992 10.1267 4.19992 9.72671 3.45992C10.9534 3.87992 11.9734 4.73325 12.6134 5.83325ZM8.00004 3.19325C8.55337 3.99325 8.98671 4.87992 9.27337 5.83325H6.72671C7.01337 4.87992 7.44671 3.99325 8.00004 3.19325ZM2.84004 9.83325C2.73337 9.40658 2.66671 8.95992 2.66671 8.49992C2.66671 8.03992 2.73337 7.59325 2.84004 7.16658H5.09337C5.04004 7.60659 5.00004 8.04659 5.00004 8.49992C5.00004 8.95325 5.04004 9.39325 5.09337 9.83325H2.84004ZM3.38671 11.1666H5.35337C5.56671 11.9999 5.87337 12.7999 6.27337 13.5399C5.04671 13.1199 4.02671 12.2733 3.38671 11.1666ZM5.35337 5.83325H3.38671C4.02671 4.72659 5.04671 3.87992 6.27337 3.45992C5.87337 4.19992 5.56671 4.99992 5.35337 5.83325ZM8.00004 13.8066C7.44671 13.0066 7.01337 12.1199 6.72671 11.1666H9.27337C8.98671 12.1199 8.55337 13.0066 8.00004 13.8066ZM9.56004 9.83325H6.44004C6.38004 9.39325 6.33337 8.95325 6.33337 8.49992C6.33337 8.04659 6.38004 7.59992 6.44004 7.16658H9.56004C9.62004 7.59992 9.66671 8.04659 9.66671 8.49992C9.66671 8.95325 9.62004 9.39325 9.56004 9.83325ZM9.72671 13.5399C10.1267 12.7999 10.4334 11.9999 10.6467 11.1666H12.6134C11.9734 12.2666 10.9534 13.1199 9.72671 13.5399ZM10.9067 9.83325C10.96 9.39325 11 8.95325 11 8.49992C11 8.04659 10.96 7.60659 10.9067 7.16658H13.16C13.2667 7.59325 13.3334 8.03992 13.3334 8.49992C13.3334 8.95992 13.2667 9.40658 13.16 9.83325H10.9067Z" fill="#183127"/>
</g>
<defs>
<clipPath id="clip0_310_4752">
<rect width="16" height="16" fill="white" transform="translate(0 0.5)"/>
</clipPath>
</defs>
</svg>
