<svg width="16" height="17" viewBox="0 0 16 17">
<path d="M14.7165 3.7391C14.7162 3.73897 14.1296 3.54646 14.1296 3.54646C13.848 3.45305 13.485 3.50451 13.3188 3.66471L13 3.96794C13.0813 3.98129 13.1628 4.00038 13.2374 4.02515L14.4044 4.41035C14.4824 4.43513 14.5502 4.46565 14.6113 4.5C14.7708 4.34555 14.9234 4.19868 14.9269 4.19677C15.08 4.04698 14.9846 3.82709 14.7165 3.7391Z" fill="#183127"/>
<path d="M9 10.2681L11.0576 6.5L13 7.73185L10.9424 11.5L9 10.2681Z" fill="#183127"/>
<path d="M11 6.22332L11.492 5.5L14 6.77668L13.508 7.5L11 6.22332Z" fill="#183127"/>
<path d="M14.708 5.04425C14.708 5.04425 13.5438 4.5581 13.5408 4.55688C13.262 4.44047 12.8932 4.50886 12.7296 4.70612L12 5.58609L14.1885 6.5L14.9183 5.61989C15.0839 5.42013 14.9897 5.16206 14.708 5.04427L14.708 5.04425Z" fill="#183127"/>
<path d="M9.37662 13.3761L9.59405 12.9059L11 11.7073L9.38719 10.5L9.24684 12.6425C9.24684 12.6425 9.02931 13.113 9.02814 13.1156C8.90007 13.3923 9.24304 13.666 9.37662 13.3761Z" fill="#183127"/>
<path d="M11.5587 11.8555L9.96889 12.8756C9.96889 12.8756 9.781 13.1814 9.78 13.183C9.35952 13.8674 8.18827 13.2376 8.62213 12.5315L8.81252 12.2213L8.97114 10.3993C8.97903 10.3056 9.00991 10.2109 9.06119 10.1275L12 5.34683V4.78577H9.08959C8.80154 4.78577 8.56717 4.56143 8.56717 4.28573V1.5H3.11939C2.50233 1.5 2 1.98081 2 2.57144V13.4286C2 14.0193 2.50223 14.5 3.11939 14.5H10.8804C11.4976 14.5 11.9998 14.0193 11.9998 13.4286V11.2619L11.7625 11.6479C11.7116 11.7308 11.641 11.8022 11.5585 11.8555L11.5587 11.8555ZM6.70148 4.64297H7.59699C7.72062 4.64297 7.82087 4.73892 7.82087 4.85725C7.82087 4.97559 7.72062 5.07154 7.59699 5.07154H6.70148C6.57785 5.07154 6.4776 4.97559 6.4776 4.85725C6.4776 4.73892 6.57795 4.64297 6.70148 4.64297ZM6.70148 5.78577H10.2835C10.4072 5.78577 10.5074 5.88172 10.5074 6.00005C10.5074 6.11839 10.4072 6.21434 10.2835 6.21434H6.70148C6.57785 6.21434 6.4776 6.11839 6.4776 6.00005C6.4776 5.88181 6.57795 5.78577 6.70148 5.78577ZM6.70148 6.92866H9.6866C9.81024 6.92866 9.91048 7.02461 9.91048 7.14295C9.91048 7.26128 9.81024 7.35724 9.6866 7.35724H6.70148C6.57785 7.35724 6.4776 7.26128 6.4776 7.14295C6.4776 7.02461 6.57795 6.92866 6.70148 6.92866ZM6.70148 8.07156H9.08948C9.21311 8.07156 9.31335 8.16751 9.31335 8.28585C9.31335 8.40418 9.21311 8.50013 9.08948 8.50013H6.70148C6.57785 8.50013 6.4776 8.40418 6.4776 8.28585C6.4776 8.16751 6.57795 8.07156 6.70148 8.07156ZM6.70148 9.21436H9.08948C9.21311 9.21436 9.31335 9.31031 9.31335 9.42865C9.31335 9.54698 9.21311 9.64293 9.08948 9.64293H6.70148C6.57785 9.64293 6.4776 9.54698 6.4776 9.42865C6.4776 9.31041 6.57795 9.21436 6.70148 9.21436ZM5.66576 11.8659L4.47171 13.0088C4.38456 13.0922 4.24303 13.0929 4.15518 13.0089C4.15508 13.0088 3.55811 12.4374 3.55811 12.4374C3.47065 12.3537 3.47065 12.218 3.55811 12.1343C3.64556 12.0506 3.78728 12.0506 3.87473 12.1343L4.31348 12.5543L5.34921 11.5629C5.43666 11.4792 5.57838 11.4792 5.66583 11.5629C5.75319 11.6466 5.75321 11.7822 5.66576 11.8659ZM5.66576 9.58019C5.66576 9.58019 4.47171 10.723 4.47171 10.7231C4.38435 10.8067 4.24283 10.807 4.15518 10.7232C4.15508 10.7231 3.55811 10.1517 3.55811 10.1517C3.47065 10.068 3.47065 9.93233 3.55811 9.84862C3.64556 9.76491 3.78728 9.76491 3.87473 9.84862L4.31348 10.2685L5.34921 9.27715C5.43666 9.19344 5.57838 9.19344 5.66583 9.27715C5.75319 9.36095 5.75319 9.4965 5.66573 9.58021L5.66576 9.58019ZM5.66576 7.29449C5.66576 7.29449 4.47181 8.43729 4.47171 8.43739C4.38376 8.52157 4.24293 8.52138 4.15518 8.43739L3.55811 7.86589C3.47065 7.78219 3.47065 7.64654 3.55811 7.56283C3.64556 7.47912 3.78728 7.47912 3.87473 7.56283L4.31348 7.98278L5.34921 6.99143C5.43666 6.90772 5.57838 6.90772 5.66583 6.99143C5.75319 7.07514 5.75321 7.21079 5.66576 7.29449ZM5.66576 5.0087C5.66576 5.0087 4.47181 6.1515 4.47171 6.1516C4.38425 6.2353 4.24283 6.23549 4.15518 6.15169C4.15508 6.1516 3.55811 5.58019 3.55811 5.58019C3.47065 5.49649 3.47065 5.36084 3.55811 5.27713C3.64556 5.19342 3.78728 5.19342 3.87473 5.27713L4.31348 5.69709L5.34921 4.70573C5.43666 4.62203 5.57838 4.62203 5.66583 4.70573C5.75319 4.78944 5.75321 4.925 5.66576 5.0087ZM7.89553 13.0715H6.70148C6.57785 13.0715 6.4776 12.9756 6.4776 12.8572C6.4776 12.7389 6.57785 12.643 6.70148 12.643H7.89553C8.01916 12.643 8.11941 12.7389 8.11941 12.8572C8.11941 12.9756 8.01916 13.0715 7.89553 13.0715ZM7.89553 11.9287H6.70148C6.57785 11.9287 6.4776 11.8328 6.4776 11.7144C6.4776 11.5961 6.57785 11.5002 6.70148 11.5002H7.89553C8.01916 11.5002 8.11941 11.5961 8.11941 11.7144C8.11941 11.8327 8.01916 11.9287 7.89553 11.9287ZM6.70148 10.7858C6.57785 10.7858 6.4776 10.6899 6.4776 10.5715C6.4776 10.4532 6.57785 10.3573 6.70148 10.3573H8.4925C8.61614 10.3573 8.71638 10.4532 8.71638 10.5715C8.71638 10.6899 8.61614 10.7858 8.4925 10.7858H6.70148Z" fill="#183127"/>
<path d="M9.05236 4.5H11L9 1.5V4.42146C9 4.46475 9.02346 4.49995 9.05232 4.49995L9.05236 4.5Z" fill="#183127"/>
</svg>
